<?xml version="1.0" encoding="utf-8"?>
<!-- Generator: Adobe Illustrator 25.0.1, SVG Export Plug-In . SVG Version: 6.00 Build 0)  -->
<svg version="1.1" id="Calque_1" xmlns="http://www.w3.org/2000/svg" xmlns:xlink="http://www.w3.org/1999/xlink" x="0px" y="0px"
	 viewBox="0 0 1200 600" style="enable-background:new 0 0 1200 600;" xml:space="preserve">
<style type="text/css">
	.st0{fill:#151000;}
</style>
<g id="Calque_1_1_">
	<g>
		<path class="st0" d="M426.3,241.6c24.8,0,43.1,7.7,59.9,23c2.2,2,2.2,5,0.2,6.9l-19.3,20c-1.7,1.7-4.5,1.7-6.2,0
			c-9.1-8.2-21.3-12.6-33.4-12.6c-28,0-48.5,23.3-48.5,51c0,27.5,20.8,50.2,48.8,50.2c11.6,0,24.2-4.2,33.2-11.9
			c1.7-1.5,5-1.5,6.4,0.2l19.3,20.5c1.7,1.7,1.5,5-0.2,6.7c-16.8,16.3-38.1,24-60.1,24c-49.5,0-89.3-39.3-89.3-88.8
			C337,281.4,376.8,241.6,426.3,241.6z"/>
		<path class="st0" d="M516.1,248.8c0-2.5,2-4.7,4.7-4.7h29.4c2.5,0,4.7,2.2,4.7,4.7v132.1h58.9c2.7,0,4.7,2.2,4.7,4.7v27
			c0,2.5-2,4.7-4.7,4.7h-93c-2.7,0-4.7-2.2-4.7-4.7L516.1,248.8L516.1,248.8z"/>
		<path class="st0" d="M717.8,241.6c49.5,0,89.1,39.8,89.1,89.3s-39.6,88.8-89.1,88.8S629,380.4,629,330.9
			C629,281.4,668.3,241.6,717.8,241.6z M717.8,380.2c27.2,0,49.5-22.3,49.5-49.2c0-27.2-22.3-49.7-49.5-49.7
			c-27,0-49.2,22.5-49.2,49.7C668.6,357.9,690.8,380.2,717.8,380.2z"/>
		<path class="st0" d="M913.5,241.6c24.8,0,43.1,7.7,59.9,23c2.2,2,2.2,5,0.2,6.9l-19.3,20c-1.7,1.7-4.5,1.7-6.2,0
			c-9.2-8.2-21.3-12.6-33.4-12.6c-28,0-48.5,23.3-48.5,51c0,27.5,20.8,50.2,48.8,50.2c11.6,0,24.2-4.2,33.2-11.9
			c1.7-1.5,5-1.5,6.4,0.2l19.3,20.5c1.7,1.7,1.5,5-0.2,6.7c-16.8,16.3-38.1,24-60.1,24c-49.5,0-89.3-39.3-89.3-88.8
			C824.2,281.4,864,241.6,913.5,241.6z"/>
		<path class="st0" d="M1003.4,250c0-3.2,2.5-5.9,5.9-5.9h29c3.2,0,5.9,2.7,5.9,5.9v65.1l54.9-68.5c1-1.2,3.2-2.5,4.7-2.5h31.2
			c4.7,0,7.2,5.4,4.4,9.2l-57.9,72.5l63.1,82.1c2.7,3.7,0,9.2-4.7,9.2h-34.2c-1.7,0-4-1-4.4-1.7l-57.2-77.7v73.7
			c0,3.2-2.7,5.9-5.9,5.9h-29c-3.5,0-5.9-2.7-5.9-5.9V250L1003.4,250z"/>
		<path class="st0" d="M339.9,206.5c0-26.1-20.9-47.1-47-47.1c-15.9,0-29.8,7.8-38.2,19.8c-20.2-12.7-44.1-20.1-69.8-20.1
			c-72.7,0-130.6,58.6-130.6,131.3s57.8,130.5,130.6,130.5s130.9-57.8,130.9-130.5c0-14-2.2-27.4-6.2-40
			C327.3,243.7,339.9,226.7,339.9,206.5z M184.8,362.7c-39.6,0-72.4-32.7-72.4-72.4c0-40,32.7-73.1,72.4-73.1
			c40,0,72.7,33.1,72.7,73.1C257.5,330,224.8,362.7,184.8,362.7z M292.7,240.7c-19,0-34.5-15.2-34.5-34.1c0-19.1,15.6-35,34.6-35
			c19.1,0,34.8,15.8,34.8,35C327.6,225.5,311.9,240.7,292.7,240.7z"/>
	</g>
</g>
</svg>
